<svg width="124" height="46" viewBox="0 0 124 46" fill="none" xmlns="http://www.w3.org/2000/svg">
<path d="M59 27.0909V13.2515C59 11.4557 60.4101 10 62.1495 10C63.8889 10 65.299 11.4557 65.299 13.2515V26.4727C65.299 28.6061 66.4485 29.6727 68.7475 29.6727C71.0466 29.6727 72.1961 28.6061 72.1961 26.4727V13.2515C72.1961 11.4557 73.6062 10 75.3456 10C77.085 10 78.4951 11.4557 78.4951 13.2515V27.0909C78.4951 29.7576 77.5801 31.9152 75.7503 33.5636C73.9673 35.1879 71.6331 36 68.7475 36C65.862 36 63.516 35.1879 61.7096 33.5636C59.9032 31.9152 59 29.7576 59 27.0909Z" fill="#403F49"/>
<path d="M101.627 22.8V13.2333C101.627 11.4476 103.03 10 104.759 10C106.489 10 107.891 11.4476 107.891 13.2333V32.1567C107.891 33.9781 106.461 35.4545 104.697 35.4545C103.655 35.4545 102.679 34.9303 102.081 34.0498L94.3431 22.6545V32.2031C94.3431 33.9988 92.933 35.4545 91.1936 35.4545C89.4542 35.4545 88.0441 33.9988 88.0441 32.2031V13.3217C88.0441 11.4872 89.4847 10 91.2617 10C92.3108 10 93.2941 10.5281 93.8963 11.415L101.627 22.8Z" fill="#403F49"/>
<path d="M120.851 35.4545C119.111 35.4545 117.701 33.9988 117.701 32.2031V22.9106C117.701 21.1148 119.111 19.6591 120.851 19.6591C122.59 19.6591 124 21.1148 124 22.9105V32.2031C124 33.9988 122.59 35.4545 120.851 35.4545Z" fill="#403F49"/>
<path d="M120.811 16.4205C119.093 16.4205 117.701 14.9832 117.701 13.2102C117.701 11.4373 119.093 10 120.811 10H120.89C122.608 10 124 11.4373 124 13.2102C124 14.9832 122.608 16.4205 120.89 16.4205H120.811Z" fill="#403F49"/>
<path fill-rule="evenodd" clip-rule="evenodd" d="M0 4.6381C0 0.70629 4.63438 -1.43541 7.67469 1.09138L22.4418 13.3642L11.185 18.2003C9.50677 18.9213 9.50677 21.2794 11.185 22.0004L15.9836 24.0619V26.4476C15.9836 30.0471 18.9286 32.9651 22.5615 32.9651C26.1943 32.9651 29.1393 30.0471 29.1393 26.4476V24.0341L33.815 22.0254C35.4932 21.3044 35.4932 18.9463 33.815 18.2253L22.5384 13.3807L37.3253 1.09138C40.3656 -1.43541 45 0.706293 45 4.6381V23.7066C45 36.0189 34.9264 46 22.5 46C10.0736 46 0 36.0189 0 23.7066V4.6381Z" fill="url(#paint0_linear_126_1698)"/>
<defs>
<linearGradient id="paint0_linear_126_1698" x1="-10.8984" y1="-1.79687" x2="53.0376" y2="45.7242" gradientUnits="userSpaceOnUse">
<stop stop-color="#5088FF"/>
<stop offset="1" stop-color="#8F00FF"/>
</linearGradient>
</defs>
</svg>
